<svg width="20" height="20" viewBox="0 0 20 20" fill="none" xmlns="http://www.w3.org/2000/svg">
<path fill-rule="evenodd" clip-rule="evenodd" d="M1.43876 0.0762915C0.685248 0.317226 0.175215 0.946517 0.0955669 1.73358C0.0643173 2.04221 0.125645 2.36482 0.281542 2.7122C0.402243 2.98114 0.505016 3.08853 3.84561 6.43654L7.28541 9.884L3.82377 13.3505C1.55942 15.6181 0.325213 16.8817 0.255331 17.004C-0.109626 17.6429 -0.0814234 18.435 0.327596 19.0335C0.643491 19.4957 1.0954 19.725 1.75348 19.7571C2.22789 19.7803 2.48976 19.7327 2.85288 19.557C3.08452 19.445 3.40807 19.1339 6.54425 16.008L9.98171 12.5817L13.4192 16.0102C17.126 19.7073 16.9633 19.5609 17.5258 19.7074C17.8548 19.7931 18.4122 19.784 18.7236 19.6878C19.2068 19.5386 19.5732 19.2245 19.8093 18.7573C20.1038 18.1745 20.0537 17.4195 19.6834 16.8605C19.6168 16.76 18.0178 15.1448 16.13 13.2711L12.6976 9.86443L16.1081 6.4463C19.4111 3.13583 19.5224 3.0195 19.6419 2.75329C19.8216 2.35275 19.872 1.97287 19.7953 1.59674C19.7619 1.43304 19.6879 1.2037 19.6308 1.08706C19.1542 0.113674 17.9225 -0.252846 16.9655 0.293906C16.8433 0.36371 15.604 1.5735 13.3899 3.78442L10.0013 7.16813L9.11262 6.28955C8.62388 5.80631 7.08139 4.27492 5.68492 2.88638C4.06549 1.27616 3.07815 0.323086 2.9589 0.254922C2.51296 -3.58928e-05 1.90195 -0.071832 1.43876 0.0762915Z" fill="black"/>
</svg>
