<svg width="131" height="75" viewBox="0 0 131 75" fill="none" xmlns="http://www.w3.org/2000/svg">
<path d="M10.277 28.41C10.5923 28.4673 10.9793 28.5247 11.438 28.582C11.8967 28.6107 12.3267 28.625 12.728 28.625C13.7027 28.625 14.5913 28.4817 15.394 28.195C16.2253 27.9083 16.9277 27.464 17.501 26.862C18.103 26.26 18.5617 25.486 18.877 24.54C19.221 23.5653 19.393 22.4043 19.393 21.057C19.393 18.477 18.791 16.542 17.587 15.252C16.383 13.9333 14.7777 13.274 12.771 13.274C12.3697 13.274 11.954 13.2883 11.524 13.317C11.1227 13.3457 10.707 13.3887 10.277 13.446V28.41ZM12.685 34.688C12.1977 34.688 11.6387 34.6737 11.008 34.645C10.3773 34.6163 9.718 34.559 9.03 34.473C8.37067 34.387 7.697 34.2723 7.009 34.129C6.34967 34.0143 5.73333 33.8423 5.16 33.613C3.58333 33.011 2.795 31.9647 2.795 30.474V10.393C2.795 9.791 2.95267 9.33233 3.268 9.017C3.612 8.673 4.07067 8.40066 4.644 8.2C5.87667 7.79867 7.181 7.54067 8.557 7.426C9.933 7.28267 11.1657 7.211 12.255 7.211C14.491 7.211 16.512 7.48333 18.318 8.028C20.1527 8.57267 21.715 9.41833 23.005 10.565C24.3237 11.683 25.3413 13.102 26.058 14.822C26.7747 16.542 27.133 18.5773 27.133 20.928C27.133 23.2213 26.789 25.228 26.101 26.948C25.413 28.6393 24.424 30.0727 23.134 31.248C21.8727 32.3947 20.3533 33.2547 18.576 33.828C16.7987 34.4013 14.835 34.688 12.685 34.688ZM39.8187 29.356C40.306 29.356 40.8363 29.313 41.4097 29.227C42.0117 29.1123 42.456 28.969 42.7427 28.797V25.357L39.6467 25.615C38.844 25.6723 38.1847 25.8443 37.6687 26.131C37.1527 26.4177 36.8947 26.8477 36.8947 27.421C36.8947 27.9943 37.1097 28.4673 37.5397 28.84C37.9983 29.184 38.758 29.356 39.8187 29.356ZM39.4747 12.457C41.0227 12.457 42.4273 12.6147 43.6887 12.93C44.9787 13.2453 46.068 13.7327 46.9567 14.392C47.874 15.0227 48.5763 15.8397 49.0637 16.843C49.551 17.8177 49.7947 18.9787 49.7947 20.326V29.958C49.7947 30.7033 49.5797 31.3197 49.1497 31.807C48.7483 32.2657 48.261 32.667 47.6877 33.011C45.8243 34.129 43.2013 34.688 39.8187 34.688C38.2993 34.688 36.9233 34.5447 35.6907 34.258C34.4867 33.9713 33.4403 33.5413 32.5517 32.968C31.6917 32.3947 31.018 31.6637 30.5307 30.775C30.072 29.8863 29.8427 28.8543 29.8427 27.679C29.8427 25.701 30.4303 24.1817 31.6057 23.121C32.781 22.0603 34.6013 21.401 37.0667 21.143L42.6997 20.541V20.24C42.6997 19.4087 42.327 18.821 41.5817 18.477C40.865 18.1043 39.8187 17.918 38.4427 17.918C37.3533 17.918 36.2927 18.0327 35.2607 18.262C34.2287 18.4913 33.297 18.778 32.4657 19.122C32.093 18.864 31.7777 18.477 31.5197 17.961C31.2617 17.4163 31.1327 16.8573 31.1327 16.284C31.1327 15.5387 31.3047 14.951 31.6487 14.521C32.0213 14.0623 32.5803 13.6753 33.3257 13.36C34.157 13.0447 35.1317 12.8153 36.2497 12.672C37.3963 12.5287 38.4713 12.457 39.4747 12.457ZM61.5743 26.819C61.5743 27.5643 61.8037 28.0947 62.2623 28.41C62.7497 28.7253 63.4233 28.883 64.2833 28.883C64.7133 28.883 65.1577 28.8543 65.6163 28.797C66.075 28.711 66.4763 28.6107 66.8203 28.496C67.0783 28.8113 67.2933 29.1697 67.4653 29.571C67.666 29.9437 67.7663 30.4023 67.7663 30.947C67.7663 32.0363 67.3507 32.925 66.5193 33.613C65.7167 34.301 64.2833 34.645 62.2193 34.645C59.6967 34.645 57.7473 34.0717 56.3713 32.925C55.024 31.7783 54.3503 29.915 54.3503 27.335V8.931C54.6657 8.845 55.11 8.759 55.6833 8.673C56.2853 8.55833 56.916 8.501 57.5753 8.501C58.8367 8.501 59.8113 8.73033 60.4993 9.189C61.216 9.619 61.5743 10.5507 61.5743 11.984V14.736H67.2073C67.3793 15.0513 67.537 15.4527 67.6803 15.94C67.8523 16.3987 67.9383 16.9147 67.9383 17.488C67.9383 18.4913 67.709 19.2223 67.2503 19.681C66.8203 20.111 66.2327 20.326 65.4873 20.326H61.5743V26.819ZM71.3091 7.297C71.3091 6.20766 71.6675 5.29033 72.3841 4.545C73.1295 3.79967 74.1041 3.427 75.3081 3.427C76.5121 3.427 77.4725 3.79967 78.1891 4.545C78.9345 5.29033 79.3071 6.20766 79.3071 7.297C79.3071 8.38633 78.9345 9.30367 78.1891 10.049C77.4725 10.7943 76.5121 11.167 75.3081 11.167C74.1041 11.167 73.1295 10.7943 72.3841 10.049C71.6675 9.30367 71.3091 8.38633 71.3091 7.297ZM78.9631 33.957C78.6478 34.0143 78.1748 34.086 77.5441 34.172C76.9421 34.2867 76.3258 34.344 75.6951 34.344C75.0645 34.344 74.4911 34.301 73.9751 34.215C73.4878 34.129 73.0721 33.957 72.7281 33.699C72.3841 33.441 72.1118 33.097 71.9111 32.667C71.7391 32.2083 71.6531 31.6207 71.6531 30.904V13.403C71.9685 13.3457 72.4271 13.274 73.0291 13.188C73.6598 13.0733 74.2905 13.016 74.9211 13.016C75.5518 13.016 76.1108 13.059 76.5981 13.145C77.1141 13.231 77.5441 13.403 77.8881 13.661C78.2321 13.919 78.4901 14.2773 78.6621 14.736C78.8628 15.166 78.9631 15.7393 78.9631 16.456V33.957ZM96.8609 20.756C96.8609 19.8673 96.6029 19.2223 96.0869 18.821C95.5995 18.391 94.9259 18.176 94.0659 18.176C93.4925 18.176 92.9192 18.2477 92.3459 18.391C91.8012 18.5343 91.3282 18.7493 90.9269 19.036V33.957C90.6402 34.043 90.1815 34.129 89.5509 34.215C88.9489 34.301 88.3182 34.344 87.6589 34.344C87.0282 34.344 86.4549 34.301 85.9389 34.215C85.4515 34.129 85.0359 33.957 84.6919 33.699C84.3479 33.441 84.0755 33.097 83.8749 32.667C83.7029 32.2083 83.6169 31.6207 83.6169 30.904V18.004C83.6169 17.23 83.7745 16.5993 84.0899 16.112C84.4339 15.6247 84.8925 15.1803 85.4659 14.779C86.4405 14.091 87.6589 13.532 89.1209 13.102C90.6115 12.672 92.2599 12.457 94.0659 12.457C97.3052 12.457 99.7992 13.1737 101.548 14.607C103.297 16.0117 104.171 17.9753 104.171 20.498V33.957C103.884 34.043 103.426 34.129 102.795 34.215C102.193 34.301 101.562 34.344 100.903 34.344C100.272 34.344 99.6989 34.301 99.1829 34.215C98.6955 34.129 98.2799 33.957 97.9359 33.699C97.5919 33.441 97.3195 33.097 97.1189 32.667C96.9469 32.2083 96.8609 31.6207 96.8609 30.904V20.756ZM118.877 12.457C120.511 12.457 121.988 12.672 123.306 13.102C124.654 13.5033 125.786 14.0337 126.703 14.693C127.277 15.0943 127.721 15.5387 128.036 16.026C128.38 16.5133 128.552 17.144 128.552 17.918V32.968C128.552 34.4873 128.266 35.7917 127.692 36.881C127.119 37.999 126.331 38.9163 125.327 39.633C124.353 40.3783 123.192 40.923 121.844 41.267C120.526 41.611 119.107 41.783 117.587 41.783C114.979 41.783 112.929 41.4247 111.438 40.708C109.948 40.02 109.202 38.8877 109.202 37.311C109.202 36.6517 109.331 36.064 109.589 35.548C109.876 35.0607 110.191 34.688 110.535 34.43C111.367 34.8887 112.298 35.2757 113.33 35.591C114.391 35.9063 115.48 36.064 116.598 36.064C118.146 36.064 119.379 35.806 120.296 35.29C121.214 34.774 121.672 33.9427 121.672 32.796V32.108C120.497 32.624 119.064 32.882 117.372 32.882C116.082 32.882 114.85 32.6957 113.674 32.323C112.528 31.9217 111.51 31.3197 110.621 30.517C109.761 29.6857 109.059 28.625 108.514 27.335C107.998 26.045 107.74 24.5113 107.74 22.734C107.74 20.9853 108.013 19.466 108.557 18.176C109.131 16.886 109.905 15.8253 110.879 14.994C111.883 14.134 113.058 13.5033 114.405 13.102C115.781 12.672 117.272 12.457 118.877 12.457ZM121.543 18.692C121.343 18.5773 121.042 18.4627 120.64 18.348C120.268 18.2333 119.795 18.176 119.221 18.176C117.817 18.176 116.756 18.5773 116.039 19.38C115.351 20.154 115.007 21.272 115.007 22.734C115.007 24.3967 115.351 25.6007 116.039 26.346C116.756 27.0627 117.659 27.421 118.748 27.421C119.924 27.421 120.855 27.1487 121.543 26.604V18.692Z" fill="white"/>
<path d="M34.556 52.025C35.76 52.025 36.6773 51.7527 37.308 51.208C37.9673 50.6347 38.297 49.7747 38.297 48.628C38.297 47.5387 37.953 46.7073 37.265 46.134C36.6057 45.532 35.631 45.231 34.341 45.231C33.8823 45.231 33.4953 45.2453 33.18 45.274C32.8933 45.274 32.5923 45.3027 32.277 45.36V52.025H34.556ZM32.32 65.828C32.0047 65.914 31.503 66 30.815 66.086C30.1557 66.172 29.4963 66.215 28.837 66.215C28.1777 66.215 27.59 66.1577 27.074 66.043C26.5867 65.957 26.171 65.785 25.827 65.527C25.483 65.269 25.225 64.9107 25.053 64.452C24.881 63.9933 24.795 63.3913 24.795 62.646V42.393C24.795 41.791 24.9527 41.3323 25.268 41.017C25.612 40.673 26.0707 40.4007 26.644 40.2C27.6187 39.856 28.7223 39.6123 29.955 39.469C31.2163 39.297 32.4777 39.211 33.739 39.211C37.695 39.211 40.7193 40.0567 42.812 41.748C44.9047 43.4393 45.951 45.7327 45.951 48.628C45.951 50.0327 45.7217 51.3083 45.263 52.455C44.833 53.573 44.1737 54.5477 43.285 55.379C42.425 56.1817 41.3213 56.8123 39.974 57.271C38.6553 57.701 37.1217 57.916 35.373 57.916H32.32V65.828ZM57.7454 61.356C58.2328 61.356 58.7631 61.313 59.3364 61.227C59.9384 61.1123 60.3828 60.969 60.6694 60.797V57.357L57.5734 57.615C56.7708 57.6723 56.1114 57.8443 55.5954 58.131C55.0794 58.4177 54.8214 58.8477 54.8214 59.421C54.8214 59.9943 55.0364 60.4673 55.4664 60.84C55.9251 61.184 56.6848 61.356 57.7454 61.356ZM57.4014 44.457C58.9494 44.457 60.3541 44.6147 61.6154 44.93C62.9054 45.2453 63.9948 45.7327 64.8834 46.392C65.8008 47.0227 66.5031 47.8397 66.9904 48.843C67.4778 49.8177 67.7214 50.9787 67.7214 52.326V61.958C67.7214 62.7033 67.5064 63.3197 67.0764 63.807C66.6751 64.2657 66.1878 64.667 65.6144 65.011C63.7511 66.129 61.1281 66.688 57.7454 66.688C56.2261 66.688 54.8501 66.5447 53.6174 66.258C52.4134 65.9713 51.3671 65.5413 50.4784 64.968C49.6184 64.3947 48.9448 63.6637 48.4574 62.775C47.9988 61.8863 47.7694 60.8543 47.7694 59.679C47.7694 57.701 48.3571 56.1817 49.5324 55.121C50.7078 54.0603 52.5281 53.401 54.9934 53.143L60.6264 52.541V52.24C60.6264 51.4087 60.2538 50.821 59.5084 50.477C58.7918 50.1043 57.7454 49.918 56.3694 49.918C55.2801 49.918 54.2194 50.0327 53.1874 50.262C52.1554 50.4913 51.2238 50.778 50.3924 51.122C50.0198 50.864 49.7044 50.477 49.4464 49.961C49.1884 49.4163 49.0594 48.8573 49.0594 48.284C49.0594 47.5387 49.2314 46.951 49.5754 46.521C49.9481 46.0623 50.5071 45.6753 51.2524 45.36C52.0838 45.0447 53.0584 44.8153 54.1764 44.672C55.3231 44.5287 56.3981 44.457 57.4014 44.457ZM93.8201 55.551C93.8201 57.3283 93.5477 58.9193 93.0031 60.324C92.4584 61.7 91.6844 62.861 90.6811 63.807C89.7064 64.753 88.5311 65.4697 87.1551 65.957C85.7791 66.4443 84.2454 66.688 82.5541 66.688C80.8627 66.688 79.3291 66.43 77.9531 65.914C76.5771 65.398 75.3874 64.667 74.3841 63.721C73.4094 62.7463 72.6497 61.571 72.1051 60.195C71.5604 58.819 71.2881 57.271 71.2881 55.551C71.2881 53.8597 71.5604 52.326 72.1051 50.95C72.6497 49.574 73.4094 48.413 74.3841 47.467C75.3874 46.4923 76.5771 45.747 77.9531 45.231C79.3291 44.715 80.8627 44.457 82.5541 44.457C84.2454 44.457 85.7791 44.7293 87.1551 45.274C88.5311 45.79 89.7064 46.5353 90.6811 47.51C91.6844 48.456 92.4584 49.617 93.0031 50.993C93.5477 52.369 93.8201 53.8883 93.8201 55.551ZM78.7701 55.551C78.7701 57.2997 79.0997 58.647 79.7591 59.593C80.4471 60.5103 81.3931 60.969 82.5971 60.969C83.8011 60.969 84.7184 60.496 85.3491 59.55C86.0084 58.604 86.3381 57.271 86.3381 55.551C86.3381 53.831 86.0084 52.5123 85.3491 51.595C84.6897 50.649 83.7581 50.176 82.5541 50.176C81.3501 50.176 80.4184 50.649 79.7591 51.595C79.0997 52.5123 78.7701 53.831 78.7701 55.551ZM104.825 65.957C104.51 66.0143 104.037 66.086 103.406 66.172C102.804 66.2867 102.188 66.344 101.557 66.344C100.927 66.344 100.353 66.301 99.8374 66.215C99.3501 66.129 98.9344 65.957 98.5904 65.699C98.2464 65.441 97.9741 65.097 97.7734 64.667C97.6014 64.2083 97.5154 63.6207 97.5154 62.904V37.964C97.8307 37.9067 98.2894 37.835 98.8914 37.749C99.5221 37.6343 100.153 37.577 100.783 37.577C101.414 37.577 101.973 37.62 102.46 37.706C102.976 37.792 103.406 37.964 103.75 38.222C104.094 38.48 104.352 38.8383 104.524 39.297C104.725 39.727 104.825 40.3003 104.825 41.017V65.957ZM118.382 61.356C118.869 61.356 119.4 61.313 119.973 61.227C120.575 61.1123 121.019 60.969 121.306 60.797V57.357L118.21 57.615C117.407 57.6723 116.748 57.8443 116.232 58.131C115.716 58.4177 115.458 58.8477 115.458 59.421C115.458 59.9943 115.673 60.4673 116.103 60.84C116.562 61.184 117.321 61.356 118.382 61.356ZM118.038 44.457C119.586 44.457 120.991 44.6147 122.252 44.93C123.542 45.2453 124.631 45.7327 125.52 46.392C126.437 47.0227 127.14 47.8397 127.627 48.843C128.114 49.8177 128.358 50.9787 128.358 52.326V61.958C128.358 62.7033 128.143 63.3197 127.713 63.807C127.312 64.2657 126.824 64.667 126.251 65.011C124.388 66.129 121.765 66.688 118.382 66.688C116.863 66.688 115.487 66.5447 114.254 66.258C113.05 65.9713 112.004 65.5413 111.115 64.968C110.255 64.3947 109.581 63.6637 109.094 62.775C108.635 61.8863 108.406 60.8543 108.406 59.679C108.406 57.701 108.994 56.1817 110.169 55.121C111.344 54.0603 113.165 53.401 115.63 53.143L121.263 52.541V52.24C121.263 51.4087 120.89 50.821 120.145 50.477C119.428 50.1043 118.382 49.918 117.006 49.918C115.917 49.918 114.856 50.0327 113.824 50.262C112.792 50.4913 111.86 50.778 111.029 51.122C110.656 50.864 110.341 50.477 110.083 49.961C109.825 49.4163 109.696 48.8573 109.696 48.284C109.696 47.5387 109.868 46.951 110.212 46.521C110.585 46.0623 111.144 45.6753 111.889 45.36C112.72 45.0447 113.695 44.8153 114.813 44.672C115.96 44.5287 117.035 44.457 118.038 44.457Z" fill="white"/>
<path d="M0.972 43.282C1.092 43.246 1.284 43.21 1.548 43.174C1.812 43.126 2.082 43.102 2.358 43.102C2.622 43.102 2.856 43.12 3.06 43.156C3.276 43.192 3.456 43.264 3.6 43.372C3.744 43.48 3.852 43.63 3.924 43.822C3.996 44.002 4.032 44.242 4.032 44.542V46.306C4.332 46.186 4.614 46.102 4.878 46.054C5.154 46.006 5.454 45.982 5.778 45.982C6.354 45.982 6.9 46.084 7.416 46.288C7.932 46.492 8.388 46.792 8.784 47.188C9.18 47.572 9.492 48.052 9.72 48.628C9.948 49.204 10.062 49.87 10.062 50.626C10.062 51.406 9.942 52.09 9.702 52.678C9.474 53.254 9.15 53.734 8.73 54.118C8.31 54.502 7.794 54.796 7.182 55C6.582 55.192 5.916 55.288 5.184 55.288C4.392 55.288 3.72 55.192 3.168 55C2.616 54.82 2.148 54.592 1.764 54.316C1.236 53.944 0.972 53.464 0.972 52.876V43.282ZM5.184 52.876C5.736 52.876 6.162 52.69 6.462 52.318C6.774 51.934 6.93 51.37 6.93 50.626C6.93 49.87 6.774 49.306 6.462 48.934C6.15 48.562 5.73 48.376 5.202 48.376C4.962 48.376 4.752 48.4 4.572 48.448C4.404 48.496 4.218 48.568 4.014 48.664V52.588C4.146 52.672 4.302 52.744 4.482 52.804C4.674 52.852 4.908 52.876 5.184 52.876ZM12.6927 52.768C12.5607 52.468 12.4167 52.132 12.2607 51.76C12.1167 51.388 11.9607 50.962 11.7927 50.482C11.6367 50.002 11.4687 49.456 11.2887 48.844C11.1207 48.22 10.9407 47.506 10.7487 46.702C10.9167 46.534 11.1387 46.39 11.4147 46.27C11.7027 46.138 12.0147 46.072 12.3507 46.072C12.7707 46.072 13.1187 46.162 13.3947 46.342C13.6707 46.51 13.8747 46.834 14.0067 47.314L15.4287 52.264H15.5007C15.6447 51.856 15.7827 51.412 15.9147 50.932C16.0587 50.452 16.1967 49.96 16.3287 49.456C16.4607 48.94 16.5807 48.43 16.6887 47.926C16.8087 47.41 16.9107 46.906 16.9947 46.414C17.4267 46.186 17.9007 46.072 18.4167 46.072C18.8367 46.072 19.1847 46.162 19.4607 46.342C19.7367 46.522 19.8747 46.834 19.8747 47.278C19.8747 47.602 19.8327 47.98 19.7487 48.412C19.6647 48.832 19.5507 49.282 19.4067 49.762C19.2747 50.242 19.1127 50.74 18.9207 51.256C18.7407 51.76 18.5487 52.258 18.3447 52.75C18.1407 53.242 17.9307 53.71 17.7147 54.154C17.4987 54.586 17.2887 54.976 17.0847 55.324C16.7487 55.912 16.4367 56.392 16.1487 56.764C15.8607 57.136 15.5847 57.424 15.3207 57.628C15.0567 57.844 14.7927 57.988 14.5287 58.06C14.2647 58.144 13.9887 58.186 13.7007 58.186C13.1967 58.186 12.7887 58.036 12.4767 57.736C12.1647 57.436 11.9787 57.046 11.9187 56.566C12.3027 56.266 12.6867 55.93 13.0707 55.558C13.4547 55.198 13.8027 54.826 14.1147 54.442C13.9107 54.382 13.6887 54.244 13.4487 54.028C13.2207 53.8 12.9687 53.38 12.6927 52.768Z" fill="white"/>
<path fill-rule="evenodd" clip-rule="evenodd" d="M1.4944 59.7397C-0.225597 60.5696 -0.481753 61.7896 0.834543 62.8818C1.38989 63.3436 2.07775 63.3778 2.71301 62.9761C4.41183 61.9016 6.42214 62.2473 8.83751 64.0294C11.5575 66.0363 15.8958 66.3218 18.2811 64.651C20.5981 63.028 19.0721 61.515 15.6669 62.0594C13.6368 62.3839 12.4496 62.0942 10.0513 60.6885C6.85248 58.8141 4.05731 58.504 1.4944 59.7397Z" fill="#ECA23F"/>
</svg>
