<svg width="21" height="21" viewBox="0 0 21 21" fill="none" xmlns="http://www.w3.org/2000/svg">
<path fill-rule="evenodd" clip-rule="evenodd" d="M10.0836 0.0693624C9.97966 0.106033 9.81976 0.215263 9.71262 0.322769C9.53612 0.499838 9.44734 0.69206 8.29771 3.3862C7.62303 4.96717 7.06677 6.26628 7.06156 6.27305C7.05634 6.27987 5.65696 6.41201 3.95181 6.56674C0.565366 6.87399 0.617805 6.86548 0.314711 7.15593C0.0780988 7.38273 0.0024586 7.57294 0.00118561 7.94432C-0.000744404 8.51865 -0.117161 8.39159 2.56458 10.742L4.9371 12.8214L4.90043 12.9846C4.88027 13.0744 4.56719 14.4532 4.20476 16.0487C3.49107 19.1902 3.49702 19.1507 3.68206 19.5201C3.91666 19.9884 4.4493 20.2446 4.93451 20.1224C5.06095 20.0906 6.07441 19.509 7.8125 18.4709L10.4953 16.8684L13.1745 18.4708C14.916 19.5124 15.9221 20.0904 16.0492 20.1224C16.5347 20.2446 17.0672 19.9886 17.3019 19.5201C17.4871 19.1504 17.4941 19.1964 16.7614 15.9724C16.3892 14.3349 16.0783 12.9544 16.0705 12.9046C16.0586 12.8297 16.4511 12.4687 18.3352 10.821C19.5887 9.72483 20.682 8.74183 20.7647 8.63658C20.952 8.39829 21.0221 8.15716 20.9941 7.84799C20.9562 7.43036 20.7219 7.10842 20.33 6.93529C20.153 6.85711 19.7422 6.81087 17.0278 6.56362C15.3227 6.40832 13.9244 6.27662 13.9203 6.27096C13.9162 6.26533 13.361 4.96717 12.6864 3.3862C11.5378 0.693949 11.4482 0.499756 11.2723 0.323509C10.9664 0.0169645 10.5089 -0.0808504 10.0836 0.0693624Z" fill="#FFC107"/>
</svg>
